<svg width="20" height="21" viewBox="0 0 20 21" fill="none" xmlns="http://www.w3.org/2000/svg">
<g id="Group">
<path id="Vector" d="M10 2.46582C12.6719 2.46582 12.9883 2.47754 14.0391 2.52441C15.0156 2.56738 15.543 2.73145 15.8945 2.86816C16.3594 3.04785 16.6953 3.2666 17.043 3.61426C17.3945 3.96582 17.6094 4.29785 17.7891 4.7627C17.9258 5.11426 18.0898 5.64551 18.1328 6.61816C18.1797 7.67285 18.1914 7.98926 18.1914 10.6572C18.1914 13.3291 18.1797 13.6455 18.1328 14.6963C18.0898 15.6729 17.9258 16.2002 17.7891 16.5518C17.6094 17.0166 17.3906 17.3525 17.043 17.7002C16.6914 18.0518 16.3594 18.2666 15.8945 18.4463C15.543 18.583 15.0117 18.7471 14.0391 18.79C12.9844 18.8369 12.668 18.8486 10 18.8486C7.32813 18.8486 7.01172 18.8369 5.96094 18.79C4.98438 18.7471 4.45703 18.583 4.10547 18.4463C3.64063 18.2666 3.30469 18.0479 2.95703 17.7002C2.60547 17.3486 2.39063 17.0166 2.21094 16.5518C2.07422 16.2002 1.91016 15.6689 1.86719 14.6963C1.82031 13.6416 1.80859 13.3252 1.80859 10.6572C1.80859 7.98535 1.82031 7.66895 1.86719 6.61816C1.91016 5.6416 2.07422 5.11426 2.21094 4.7627C2.39063 4.29785 2.60938 3.96191 2.95703 3.61426C3.30859 3.2627 3.64063 3.04785 4.10547 2.86816C4.45703 2.73145 4.98828 2.56738 5.96094 2.52441C7.01172 2.47754 7.32813 2.46582 10 2.46582ZM10 0.665039C7.28516 0.665039 6.94531 0.676758 5.87891 0.723633C4.81641 0.770508 4.08594 0.942383 3.45313 1.18848C2.79297 1.44629 2.23438 1.78613 1.67969 2.34473C1.12109 2.89941 0.78125 3.45801 0.523438 4.11426C0.277344 4.75098 0.105469 5.47754 0.0585938 6.54004C0.0117188 7.61035 0 7.9502 0 10.665C0 13.3799 0.0117188 13.7197 0.0585938 14.7861C0.105469 15.8486 0.277344 16.5791 0.523438 17.2119C0.78125 17.8721 1.12109 18.4307 1.67969 18.9854C2.23438 19.54 2.79297 19.8838 3.44922 20.1377C4.08594 20.3838 4.8125 20.5557 5.875 20.6025C6.94141 20.6494 7.28125 20.6611 9.99609 20.6611C12.7109 20.6611 13.0508 20.6494 14.1172 20.6025C15.1797 20.5557 15.9102 20.3838 16.543 20.1377C17.1992 19.8838 17.7578 19.54 18.3125 18.9854C18.8672 18.4307 19.2109 17.8721 19.4648 17.2158C19.7109 16.5791 19.8828 15.8525 19.9297 14.79C19.9766 13.7236 19.9883 13.3838 19.9883 10.6689C19.9883 7.9541 19.9766 7.61426 19.9297 6.54785C19.8828 5.48535 19.7109 4.75488 19.4648 4.12207C19.2188 3.45801 18.8789 2.89941 18.3203 2.34473C17.7656 1.79004 17.207 1.44629 16.5508 1.19238C15.9141 0.946289 15.1875 0.774414 14.125 0.727539C13.0547 0.676758 12.7148 0.665039 10 0.665039Z" fill="#000100"/>
<path id="Vector_2" d="M9.99609 5.52832C7.16016 5.52832 4.85938 7.8291 4.85938 10.665C4.85938 13.501 7.16016 15.8018 9.99609 15.8018C12.832 15.8018 15.1328 13.501 15.1328 10.665C15.1328 7.8291 12.832 5.52832 9.99609 5.52832ZM9.99609 13.9971C8.15625 13.9971 6.66406 12.5049 6.66406 10.665C6.66406 8.8252 8.15625 7.33301 9.99609 7.33301C11.8359 7.33301 13.3281 8.8252 13.3281 10.665C13.3281 12.5049 11.8359 13.9971 9.99609 13.9971Z" fill="#000100"/>
<path id="Vector_3" d="M16.5391 5.3252C16.5391 5.98926 16 6.52442 15.3398 6.52442C14.6758 6.52442 14.1406 5.98535 14.1406 5.3252C14.1406 4.66113 14.6797 4.12598 15.3398 4.12598C16 4.12598 16.5391 4.66504 16.5391 5.3252Z" fill="#000100"/>
</g>
</svg>
