<svg width="107" height="23" viewBox="0 0 107 23" fill="none" xmlns="http://www.w3.org/2000/svg">
<g id="logo type">
<g id="Quiickops">
<path d="M7.848 17.6447C9.312 17.6447 10.608 17.3567 11.688 16.7807L14.304 18.9647L15.672 17.3087L13.488 15.4847C14.88 14.0207 15.672 11.8607 15.672 9.19673C15.672 3.96473 12.672 0.700735 7.848 0.700735C2.976 0.700735 0 3.96473 0 9.19673C0 14.4287 2.976 17.6447 7.848 17.6447ZM7.848 15.3887C4.632 15.3887 2.736 13.0367 2.736 9.19673C2.736 5.33274 4.632 2.95673 7.848 2.95673C11.04 2.95673 12.936 5.33274 12.936 9.19673C12.936 11.1647 12.432 12.7487 11.52 13.8287L8.616 11.4047L7.248 13.0847L9.648 15.1007C9.12 15.2927 8.52 15.3887 7.848 15.3887Z" fill="#101828"/>
<path d="M26.4714 12.0287C26.4714 13.8047 25.3194 15.5087 23.4474 15.5087C21.7434 15.5087 20.9754 14.4047 20.9754 12.5567V4.54073H18.4074V13.0847C18.4074 16.1087 20.0394 17.6447 22.6554 17.6447C24.2874 17.6447 25.6314 16.9727 26.4714 15.6047V17.3327H29.0154V4.54073H26.4714V12.0287Z" fill="#101828"/>
<path d="M32.1418 2.95673H34.7098V0.0527344H32.1418V2.95673ZM32.1418 17.3327H34.7098V4.54073H32.1418V17.3327Z" fill="#101828"/>
<path d="M37.8137 2.95673H40.3817V0.0527344H37.8137V2.95673ZM37.8137 17.3327H40.3817V4.54073H37.8137V17.3327Z" fill="#101828"/>
<path d="M54.3096 9.00473C53.8776 5.81273 51.6216 4.20473 48.7656 4.20473C45.1416 4.20473 42.8616 6.60473 42.8616 10.9487C42.8616 15.1007 45.0936 17.6447 48.7896 17.6447C51.6216 17.6447 53.8296 16.2287 54.3816 13.0367H51.8376C51.4536 14.6687 50.3736 15.5087 48.8376 15.5087C46.6776 15.5087 45.4776 13.8527 45.4776 10.9487C45.4776 7.99673 46.6296 6.36473 48.7656 6.36473C50.2536 6.36473 51.4296 7.18073 51.7416 9.00473H54.3096Z" fill="#101828"/>
<path d="M56.7746 17.3327H59.3426V10.9487L64.6466 17.3327H67.8386L61.9826 10.2287L67.5026 4.54073H64.4306L59.3426 9.96474V0.0527344H56.7746V17.3327Z" fill="#101828"/>
<path d="M74.0329 17.6447C77.6809 17.6447 80.0089 15.2687 80.0089 10.9487C80.0089 6.77273 77.7529 4.20473 74.0329 4.20473C70.3849 4.20473 68.0569 6.60473 68.0569 10.9487C68.0569 15.1247 70.3129 17.6447 74.0329 17.6447ZM74.0329 15.4847C71.8729 15.4847 70.6729 13.8527 70.6729 10.9487C70.6729 7.97273 71.8729 6.36473 74.0329 6.36473C76.1929 6.36473 77.3929 8.02073 77.3929 10.9487C77.3929 13.9007 76.2169 15.4847 74.0329 15.4847Z" fill="#101828"/>
<path d="M85.077 22.6127V15.8687C85.893 17.0447 87.093 17.6447 88.557 17.6447C91.893 17.6447 93.981 15.2447 93.981 10.9007C93.981 6.72473 91.941 4.20473 88.557 4.20473C87.093 4.20473 85.893 4.87673 85.077 6.07673V4.54073H82.509V22.6127H85.077ZM88.245 6.36473C90.213 6.36473 91.365 7.99673 91.365 10.9007C91.365 13.8527 90.261 15.4847 88.245 15.4847C86.229 15.4847 85.077 13.8287 85.077 10.9007C85.077 7.97273 86.181 6.36473 88.245 6.36473Z" fill="#101828"/>
<path d="M98.5178 7.90073C98.5178 6.94073 99.3337 6.24473 100.75 6.24473C102.382 6.24473 103.39 6.91673 103.678 8.71673H106.246C105.838 5.52473 103.726 4.20473 100.87 4.20473C97.6298 4.20473 96.0697 6.05273 96.0697 8.04473C96.0697 13.3007 104.134 10.6127 104.134 13.8047C104.134 14.8847 103.222 15.6527 101.494 15.6527C99.6937 15.6527 98.4938 14.7647 98.2298 13.1567H95.6618C96.1418 16.2047 98.3258 17.6447 101.422 17.6447C104.518 17.6447 106.702 16.0607 106.702 13.6367C106.702 8.42873 98.5178 11.1647 98.5178 7.90073Z" fill="#101828"/>
</g>
</g>
</svg>
