<svg width="20" height="21" viewBox="0 0 20 21" fill="none" xmlns="http://www.w3.org/2000/svg">
<g id="Social icon" clip-path="url(#clip0_3482_111863)">
<path id="Vector" d="M18.5236 0.665039H1.47639C1.08483 0.665039 0.709301 0.820587 0.432425 1.09746C0.155548 1.37434 0 1.74987 0 2.14143V19.1886C0 19.5802 0.155548 19.9557 0.432425 20.2326C0.709301 20.5095 1.08483 20.665 1.47639 20.665H18.5236C18.9152 20.665 19.2907 20.5095 19.5676 20.2326C19.8445 19.9557 20 19.5802 20 19.1886V2.14143C20 1.74987 19.8445 1.37434 19.5676 1.09746C19.2907 0.820587 18.9152 0.665039 18.5236 0.665039ZM5.96111 17.7025H2.95417V8.15115H5.96111V17.7025ZM4.45556 6.82754C4.11447 6.82562 3.7816 6.7227 3.49895 6.53178C3.21629 6.34086 2.99653 6.07048 2.8674 5.75478C2.73826 5.43908 2.70554 5.0922 2.77336 4.75792C2.84118 4.42364 3.0065 4.11694 3.24846 3.87652C3.49042 3.63611 3.79818 3.47276 4.13289 3.40709C4.4676 3.34142 4.81426 3.37637 5.12913 3.50753C5.44399 3.63869 5.71295 3.86018 5.90205 4.14405C6.09116 4.42792 6.19194 4.76145 6.19167 5.10254C6.19488 5.3309 6.15209 5.55757 6.06584 5.76904C5.97959 5.98051 5.85165 6.17246 5.68964 6.33343C5.52763 6.4944 5.33487 6.62111 5.12285 6.706C4.91083 6.79089 4.68389 6.83222 4.45556 6.82754ZM17.0444 17.7109H14.0389V12.4928C14.0389 10.9539 13.3847 10.4789 12.5403 10.4789C11.6486 10.4789 10.7736 11.1512 10.7736 12.5317V17.7109H7.76667V8.1581H10.6583V9.48171H10.6972C10.9875 8.89421 12.0042 7.89004 13.5556 7.89004C15.2333 7.89004 17.0458 8.88587 17.0458 11.8025L17.0444 17.7109Z" fill="#0A66C2"/>
</g>
<defs>
<clipPath id="clip0_3482_111863">
<rect width="20" height="20" fill="white" transform="translate(0 0.665039)"/>
</clipPath>
</defs>
</svg>
