<svg width="20" height="21" viewBox="0 0 20 21" fill="none" xmlns="http://www.w3.org/2000/svg">
<g id="Social icon">
<path id="Vector" d="M6.2896 18.7906C13.8368 18.7906 17.9648 12.5378 17.9648 7.11539C17.9648 6.93779 17.9648 6.76099 17.9528 6.58499C18.7559 6.00412 19.4491 5.28489 20 4.46099C19.2512 4.79299 18.4567 5.01062 17.6432 5.10659C18.4998 4.59383 19.141 3.78724 19.4472 2.83699C18.6417 3.315 17.7605 3.65185 16.8416 3.83299C16.2229 3.17514 15.4047 2.73953 14.5135 2.59356C13.6223 2.4476 12.7078 2.59942 11.9116 3.02554C11.1154 3.45165 10.4819 4.1283 10.109 4.95078C9.73605 5.77326 9.64462 6.69571 9.8488 7.57539C8.21741 7.49356 6.62146 7.06958 5.16455 6.331C3.70763 5.59241 2.4223 4.55571 1.392 3.28819C0.867274 4.19152 0.70656 5.26088 0.942583 6.27854C1.17861 7.29621 1.79362 8.18565 2.6624 8.76579C2.00936 8.74666 1.37054 8.57049 0.8 8.25219V8.30419C0.800259 9.25157 1.12821 10.1697 1.72823 10.9028C2.32824 11.636 3.16338 12.139 4.092 12.3266C3.4879 12.4914 2.85406 12.5155 2.2392 12.397C2.50151 13.2123 3.01202 13.9252 3.69937 14.4361C4.38671 14.947 5.21652 15.2304 6.0728 15.2466C5.22203 15.9153 4.24776 16.4097 3.20573 16.7016C2.16369 16.9934 1.07435 17.077 0 16.9474C1.87653 18.1516 4.05994 18.7903 6.2896 18.7874" fill="#1DA1F2"/>
</g>
</svg>
