<svg width="20" height="21" viewBox="0 0 20 21" fill="none" xmlns="http://www.w3.org/2000/svg">
<g id="Social icon" clip-path="url(#clip0_3477_119467)">
<path id="Vector" d="M20 10.665C20 5.14219 15.5229 0.665039 10 0.665039C4.47715 0.665039 0 5.14219 0 10.665C0 15.6563 3.65684 19.7934 8.4375 20.5436V13.5557H5.89844V10.665H8.4375V8.46192C8.4375 5.95566 9.93047 4.57129 12.2146 4.57129C13.3084 4.57129 14.4531 4.7666 14.4531 4.7666V7.22754H13.1922C11.95 7.22754 11.5625 7.99844 11.5625 8.79004V10.665H14.3359L13.8926 13.5557H11.5625V20.5436C16.3432 19.7934 20 15.6563 20 10.665Z" fill="#1877F2"/>
<path id="Vector_2" d="M13.8926 13.5557L14.3359 10.665H11.5625V8.79004C11.5625 7.99922 11.95 7.22754 13.1922 7.22754H14.4531V4.7666C14.4531 4.7666 13.3088 4.57129 12.2146 4.57129C9.93047 4.57129 8.4375 5.95566 8.4375 8.46191V10.665H5.89844V13.5557H8.4375V20.5436C9.47287 20.7055 10.5271 20.7055 11.5625 20.5436V13.5557H13.8926Z" fill="white"/>
</g>
<defs>
<clipPath id="clip0_3477_119467">
<rect width="20" height="20" fill="white" transform="translate(0 0.665039)"/>
</clipPath>
</defs>
</svg>
